<svg width="223" height="222" viewBox="0 0 223 222" fill="none" xmlns="http://www.w3.org/2000/svg">
<g clip-path="url(#clip0_131_4684)">
<rect width="223" height="222" rx="2" fill="white"/>
<path d="M70.5002 129.188L25.5704 114.447L8.56263 135.768L1.95135 133.599L67.1282 52.4614L73.8744 54.6747L78.1835 158.609L71.5722 156.44L70.5002 129.188ZM70.2933 123.441L67.8896 61.5286L29.1415 109.94L70.2933 123.441Z" fill="black"/>
<path d="M90.538 160L116.098 117.542H116.666H137.966V160H144.356V60.316H116.95C105.874 60.316 97.5907 62.9193 92.1 68.126C86.5147 73.3327 83.722 80.2433 83.722 88.858C83.722 96.526 85.8993 102.869 90.254 107.886C94.514 112.809 100.762 115.838 108.998 116.974L82.87 160H90.538ZM137.966 112.146H116.666C107.862 112.146 101.283 110.016 96.928 105.756C92.5733 101.496 90.396 95.8633 90.396 88.858C90.396 73.6167 99.2473 65.996 116.95 65.996H137.966V112.146Z" fill="black"/>
<path d="M204.74 60.316V65.712H176.34V160H169.95V65.712H141.55V60.316H204.74Z" fill="black"/>
<circle cx="108.5" cy="107.5" r="106" stroke="black" stroke-width="5"/>
</g>
<rect x="0.5" y="0.5" width="222" height="221" rx="1.5" stroke="black" stroke-opacity="0.1"/>
<defs>
<clipPath id="clip0_131_4684">
<rect width="223" height="222" rx="2" fill="white"/>
</clipPath>
</defs>
</svg>
